# xmcd
#
# Track frame offsets:
#	150
#	22053
#	47170
#	68441
#	88326
#	107204
#	132062
#	154040
#	173618
#	205118
#	227721
#	264197
#
# Disc length: 3849 seconds
#
# Revision: 0
# Processed by: cddbd v1.5.2PL0 Copyright (c) Steve Scherf et al.
# Submitted via: dBpowerAMP V4.0
#
DISCID=970f070c
DTITLE=Blueground Undergrass - Faces
DYEAR=1900
DGENRE=
TTITLE0=Faces
TTITLE1=Dublin Blues
TTITLE2=In This Life
TTITLE3=Our Feet
TTITLE4=Feel At Home
TTITLE5=Clock Goes On
TTITLE6=Like Discovering The Ocean
TTITLE7=Renee
TTITLE8=Potter's Wheel
TTITLE9=Clinch Mountain Backstep
TTITLE10=Ole Love Ole Tune
TTITLE11=Black Muddy River
EXTD=
EXTT0=
EXTT1=
EXTT2=
EXTT3=
EXTT4=
EXTT5=
EXTT6=
EXTT7=
EXTT8=
EXTT9=
EXTT10=
EXTT11=
PLAYORDER=
